<svg width="728" height="160" viewBox="0 0 728 160" fill="none" xmlns="http://www.w3.org/2000/svg">
<path d="M4.554 21L0.09 8.04H1.467L5.418 19.497L9.396 8.04H10.773L6.309 21H4.554ZM15.164 21.27C14.216 21.27 13.394 21.06 12.698 20.64C12.008 20.22 11.471 19.629 11.087 18.867C10.703 18.105 10.511 17.211 10.511 16.185C10.511 15.123 10.7 14.205 11.078 13.431C11.456 12.657 11.987 12.06 12.671 11.64C13.361 11.22 14.174 11.01 15.11 11.01C16.07 11.01 16.889 11.232 17.567 11.676C18.245 12.114 18.758 12.744 19.106 13.566C19.454 14.388 19.613 15.369 19.583 16.509H18.233V16.041C18.209 14.781 17.936 13.83 17.414 13.188C16.898 12.546 16.142 12.225 15.146 12.225C14.102 12.225 13.301 12.564 12.743 13.242C12.191 13.92 11.915 14.886 11.915 16.14C11.915 17.364 12.191 18.315 12.743 18.993C13.301 19.665 14.09 20.001 15.11 20.001C15.806 20.001 16.412 19.842 16.928 19.524C17.45 19.2 17.861 18.735 18.161 18.129L19.394 18.606C19.01 19.452 18.443 20.109 17.693 20.577C16.949 21.039 16.106 21.27 15.164 21.27ZM11.447 16.509V15.402H18.872V16.509H11.447ZM25.4413 25.59C24.9433 25.59 24.4513 25.515 23.9653 25.365C23.4853 25.221 23.0413 24.99 22.6333 24.672C22.2253 24.36 21.8833 23.952 21.6073 23.448L22.8043 22.782C23.0743 23.322 23.4523 23.709 23.9383 23.943C24.4303 24.183 24.9313 24.303 25.4413 24.303C26.1433 24.303 26.7103 24.171 27.1423 23.907C27.5803 23.649 27.8983 23.265 28.0963 22.755C28.2943 22.245 28.3903 21.609 28.3843 20.847V18.255H28.5373V11.28H29.7163V20.865C29.7163 21.141 29.7073 21.405 29.6893 21.657C29.6773 21.915 29.6503 22.167 29.6083 22.413C29.4943 23.139 29.2573 23.736 28.8973 24.204C28.5433 24.672 28.0753 25.02 27.4933 25.248C26.9173 25.476 26.2333 25.59 25.4413 25.59ZM25.3513 21.27C24.4453 21.27 23.6713 21.045 23.0293 20.595C22.3873 20.139 21.8953 19.524 21.5533 18.75C21.2113 17.976 21.0403 17.103 21.0403 16.131C21.0403 15.165 21.2083 14.295 21.5443 13.521C21.8863 12.747 22.3753 12.135 23.0113 11.685C23.6473 11.235 24.4093 11.01 25.2973 11.01C26.2093 11.01 26.9773 11.232 27.6013 11.676C28.2253 12.12 28.6963 12.729 29.0143 13.503C29.3383 14.271 29.5003 15.147 29.5003 16.131C29.5003 17.097 29.3413 17.97 29.0233 18.75C28.7053 19.524 28.2373 20.139 27.6193 20.595C27.0013 21.045 26.2453 21.27 25.3513 21.27ZM25.4863 20.037C26.1763 20.037 26.7463 19.869 27.1963 19.533C27.6463 19.197 27.9823 18.735 28.2043 18.147C28.4263 17.553 28.5373 16.881 28.5373 16.131C28.5373 15.369 28.4263 14.697 28.2043 14.115C27.9823 13.527 27.6463 13.068 27.1963 12.738C26.7523 12.408 26.1913 12.243 25.5133 12.243C24.8173 12.243 24.2413 12.414 23.7853 12.756C23.3293 13.098 22.9903 13.563 22.7683 14.151C22.5523 14.739 22.4443 15.399 22.4443 16.131C22.4443 16.869 22.5553 17.535 22.7773 18.129C23.0053 18.717 23.3443 19.182 23.7943 19.524C24.2443 19.866 24.8083 20.037 25.4863 20.037ZM36.3457 21.27C35.3977 21.27 34.5757 21.06 33.8797 20.64C33.1897 20.22 32.6527 19.629 32.2687 18.867C31.8847 18.105 31.6927 17.211 31.6927 16.185C31.6927 15.123 31.8817 14.205 32.2597 13.431C32.6377 12.657 33.1687 12.06 33.8527 11.64C34.5427 11.22 35.3557 11.01 36.2917 11.01C37.2517 11.01 38.0707 11.232 38.7487 11.676C39.4267 12.114 39.9397 12.744 40.2877 13.566C40.6357 14.388 40.7947 15.369 40.7647 16.509H39.4147V16.041C39.3907 14.781 39.1177 13.83 38.5957 13.188C38.0797 12.546 37.3237 12.225 36.3277 12.225C35.2837 12.225 34.4827 12.564 33.9247 13.242C33.3727 13.92 33.0967 14.886 33.0967 16.14C33.0967 17.364 33.3727 18.315 33.9247 18.993C34.4827 19.665 35.2717 20.001 36.2917 20.001C36.9877 20.001 37.5937 19.842 38.1097 19.524C38.6317 19.2 39.0427 18.735 39.3427 18.129L40.5757 18.606C40.1917 19.452 39.6247 20.109 38.8747 20.577C38.1307 21.039 37.2877 21.27 36.3457 21.27ZM32.6287 16.509V15.402H40.0537V16.509H32.6287ZM48.054 21C47.508 21.114 46.968 21.159 46.434 21.135C45.906 21.111 45.432 20.997 45.012 20.793C44.598 20.589 44.283 20.271 44.067 19.839C43.893 19.479 43.797 19.116 43.779 18.75C43.767 18.378 43.761 17.955 43.761 17.481V8.58H45.075V17.427C45.075 17.835 45.078 18.177 45.084 18.453C45.096 18.723 45.159 18.963 45.273 19.173C45.489 19.575 45.831 19.815 46.299 19.893C46.773 19.971 47.358 19.953 48.054 19.839V21ZM41.682 12.414V11.28H48.054V12.414H41.682ZM52.75 21.27C52.018 21.27 51.403 21.138 50.905 20.874C50.413 20.61 50.044 20.259 49.798 19.821C49.552 19.383 49.429 18.906 49.429 18.39C49.429 17.862 49.534 17.412 49.744 17.04C49.96 16.662 50.251 16.353 50.617 16.113C50.989 15.873 51.418 15.69 51.904 15.564C52.396 15.444 52.939 15.339 53.533 15.249C54.133 15.153 54.718 15.072 55.288 15.006C55.864 14.934 56.368 14.865 56.8 14.799L56.332 15.087C56.35 14.127 56.164 13.416 55.774 12.954C55.384 12.492 54.706 12.261 53.74 12.261C53.074 12.261 52.51 12.411 52.048 12.711C51.592 13.011 51.271 13.485 51.085 14.133L49.798 13.755C50.02 12.885 50.467 12.21 51.139 11.73C51.811 11.25 52.684 11.01 53.758 11.01C54.646 11.01 55.399 11.178 56.017 11.514C56.641 11.844 57.082 12.324 57.34 12.954C57.46 13.236 57.538 13.551 57.574 13.899C57.61 14.247 57.628 14.601 57.628 14.961V21H56.449V18.561L56.791 18.705C56.461 19.539 55.948 20.175 55.252 20.613C54.556 21.051 53.722 21.27 52.75 21.27ZM52.903 20.127C53.521 20.127 54.061 20.016 54.523 19.794C54.985 19.572 55.357 19.269 55.639 18.885C55.921 18.495 56.104 18.057 56.188 17.571C56.26 17.259 56.299 16.917 56.305 16.545C56.311 16.167 56.314 15.885 56.314 15.699L56.818 15.96C56.368 16.02 55.879 16.08 55.351 16.14C54.829 16.2 54.313 16.269 53.803 16.347C53.299 16.425 52.843 16.518 52.435 16.626C52.159 16.704 51.892 16.815 51.634 16.959C51.376 17.097 51.163 17.283 50.995 17.517C50.833 17.751 50.752 18.042 50.752 18.39C50.752 18.672 50.821 18.945 50.959 19.209C51.103 19.473 51.331 19.692 51.643 19.866C51.961 20.04 52.381 20.127 52.903 20.127ZM64.3359 21.27C63.4419 21.27 62.6859 21.045 62.0679 20.595C61.4499 20.139 60.9819 19.524 60.6639 18.75C60.3459 17.97 60.1869 17.097 60.1869 16.131C60.1869 15.147 60.3459 14.271 60.6639 13.503C60.9879 12.729 61.4619 12.12 62.0859 11.676C62.7099 11.232 63.4779 11.01 64.3899 11.01C65.2779 11.01 66.0399 11.235 66.6759 11.685C67.3119 12.135 67.7979 12.747 68.1339 13.521C68.4759 14.295 68.6469 15.165 68.6469 16.131C68.6469 17.103 68.4759 17.976 68.1339 18.75C67.7919 19.524 67.2999 20.139 66.6579 20.595C66.0159 21.045 65.2419 21.27 64.3359 21.27ZM59.9619 21V8.04H61.2939V13.683H61.1499V21H59.9619ZM64.2009 20.037C64.8789 20.037 65.4429 19.866 65.8929 19.524C66.3429 19.182 66.6789 18.717 66.9009 18.129C67.1289 17.535 67.2429 16.869 67.2429 16.131C67.2429 15.399 67.1319 14.739 66.9099 14.151C66.6879 13.563 66.3489 13.098 65.8929 12.756C65.4429 12.414 64.8699 12.243 64.1739 12.243C63.4959 12.243 62.9319 12.408 62.4819 12.738C62.0379 13.068 61.7049 13.527 61.4829 14.115C61.2609 14.697 61.1499 15.369 61.1499 16.131C61.1499 16.881 61.2609 17.553 61.4829 18.147C61.7049 18.735 62.0409 19.197 62.4909 19.533C62.9409 19.869 63.5109 20.037 64.2009 20.037ZM70.8033 21V7.77H72.1263V21H70.8033ZM78.9375 21.27C77.9895 21.27 77.1675 21.06 76.4715 20.64C75.7815 20.22 75.2445 19.629 74.8605 18.867C74.4765 18.105 74.2845 17.211 74.2845 16.185C74.2845 15.123 74.4735 14.205 74.8515 13.431C75.2295 12.657 75.7605 12.06 76.4445 11.64C77.1345 11.22 77.9475 11.01 78.8835 11.01C79.8435 11.01 80.6625 11.232 81.3405 11.676C82.0185 12.114 82.5315 12.744 82.8795 13.566C83.2275 14.388 83.3865 15.369 83.3565 16.509H82.0065V16.041C81.9825 14.781 81.7095 13.83 81.1875 13.188C80.6715 12.546 79.9155 12.225 78.9195 12.225C77.8755 12.225 77.0745 12.564 76.5165 13.242C75.9645 13.92 75.6885 14.886 75.6885 16.14C75.6885 17.364 75.9645 18.315 76.5165 18.993C77.0745 19.665 77.8635 20.001 78.8835 20.001C79.5795 20.001 80.1855 19.842 80.7015 19.524C81.2235 19.2 81.6345 18.735 81.9345 18.129L83.1675 18.606C82.7835 19.452 82.2165 20.109 81.4665 20.577C80.7225 21.039 79.8795 21.27 78.9375 21.27ZM75.2205 16.509V15.402H82.6455V16.509H75.2205ZM88.9808 21.261C87.8408 21.261 86.9018 21.015 86.1638 20.523C85.4318 20.031 84.9818 19.347 84.8138 18.471L86.1638 18.246C86.3078 18.798 86.6348 19.239 87.1448 19.569C87.6608 19.893 88.2968 20.055 89.0527 20.055C89.7908 20.055 90.3728 19.902 90.7988 19.596C91.2248 19.284 91.4378 18.861 91.4378 18.327C91.4378 18.027 91.3688 17.784 91.2308 17.598C91.0988 17.406 90.8258 17.229 90.4118 17.067C89.9978 16.905 89.3798 16.713 88.5578 16.491C87.6758 16.251 86.9858 16.011 86.4878 15.771C85.9898 15.531 85.6358 15.255 85.4258 14.943C85.2158 14.625 85.1108 14.238 85.1108 13.782C85.1108 13.23 85.2668 12.747 85.5788 12.333C85.8908 11.913 86.3228 11.589 86.8748 11.361C87.4268 11.127 88.0688 11.01 88.8008 11.01C89.5328 11.01 90.1868 11.13 90.7628 11.37C91.3448 11.604 91.8128 11.934 92.1668 12.36C92.5208 12.786 92.7308 13.281 92.7968 13.845L91.4468 14.088C91.3568 13.518 91.0718 13.068 90.5918 12.738C90.1178 12.402 89.5148 12.228 88.7828 12.216C88.0928 12.198 87.5318 12.33 87.0998 12.612C86.6678 12.888 86.4518 13.257 86.4518 13.719C86.4518 13.977 86.5298 14.199 86.6858 14.385C86.8418 14.565 87.1238 14.736 87.5318 14.898C87.9458 15.06 88.5338 15.237 89.2958 15.429C90.1898 15.657 90.8918 15.897 91.4018 16.149C91.9118 16.401 92.2748 16.698 92.4908 17.04C92.7068 17.382 92.8148 17.805 92.8148 18.309C92.8148 19.227 92.4728 19.95 91.7888 20.478C91.1108 21 90.1748 21.261 88.9808 21.261Z" fill="#16161D"/>
<rect x="128" width="600" height="28" rx="8" fill="#F1F1F4"/>
<rect x="128" width="140" height="28" rx="8" fill="#15A64B"/>
<path d="M1.26 65V52.04H8.703V53.363H2.583V57.863H7.623V59.177H2.583V65H1.26ZM10.3303 65V55.28H11.5183V57.62L11.2843 57.314C11.3923 57.026 11.5333 56.762 11.7073 56.522C11.8813 56.276 12.0703 56.075 12.2743 55.919C12.5263 55.697 12.8203 55.529 13.1563 55.415C13.4923 55.295 13.8313 55.226 14.1733 55.208C14.5153 55.184 14.8273 55.208 15.1093 55.28V56.522C14.7553 56.432 14.3683 56.411 13.9483 56.459C13.5283 56.507 13.1413 56.675 12.7873 56.963C12.4633 57.215 12.2203 57.518 12.0583 57.872C11.8963 58.22 11.7883 58.592 11.7343 58.988C11.6803 59.378 11.6533 59.765 11.6533 60.149V65H10.3303ZM20.5336 65.243C19.9516 65.243 19.4416 65.153 19.0036 64.973C18.5716 64.793 18.2026 64.55 17.8966 64.244C17.5966 63.938 17.3536 63.59 17.1676 63.2C16.9816 62.804 16.8466 62.387 16.7626 61.949C16.6786 61.505 16.6366 61.064 16.6366 60.626V55.28H17.9686V60.239C17.9686 60.773 18.0196 61.268 18.1216 61.724C18.2236 62.18 18.3856 62.579 18.6076 62.921C18.8356 63.257 19.1266 63.518 19.4806 63.704C19.8406 63.89 20.2756 63.983 20.7856 63.983C21.2536 63.983 21.6646 63.902 22.0186 63.74C22.3786 63.578 22.6786 63.347 22.9186 63.047C23.1646 62.741 23.3506 62.372 23.4766 61.94C23.6026 61.502 23.6656 61.01 23.6656 60.464L24.6016 60.671C24.6016 61.667 24.4276 62.504 24.0796 63.182C23.7316 63.86 23.2516 64.373 22.6396 64.721C22.0276 65.069 21.3256 65.243 20.5336 65.243ZM23.8006 65V62.606H23.6656V55.28H24.9886V65H23.8006ZM27.6841 53.435V51.95H29.0071V53.435H27.6841ZM27.6841 65V55.28H29.0071V65H27.6841ZM36.9973 65C36.4513 65.114 35.9113 65.159 35.3773 65.135C34.8493 65.111 34.3753 64.997 33.9553 64.793C33.5413 64.589 33.2263 64.271 33.0103 63.839C32.8363 63.479 32.7403 63.116 32.7223 62.75C32.7103 62.378 32.7043 61.955 32.7043 61.481V52.58H34.0183V61.427C34.0183 61.835 34.0213 62.177 34.0273 62.453C34.0393 62.723 34.1023 62.963 34.2163 63.173C34.4323 63.575 34.7743 63.815 35.2423 63.893C35.7163 63.971 36.3013 63.953 36.9973 63.839V65ZM30.6253 56.414V55.28H36.9973V56.414H30.6253ZM42.5393 65.261C41.3993 65.261 40.4603 65.015 39.7223 64.523C38.9903 64.031 38.5403 63.347 38.3723 62.471L39.7223 62.246C39.8663 62.798 40.1933 63.239 40.7033 63.569C41.2193 63.893 41.8553 64.055 42.6113 64.055C43.3493 64.055 43.9313 63.902 44.3573 63.596C44.7833 63.284 44.9963 62.861 44.9963 62.327C44.9963 62.027 44.9273 61.784 44.7893 61.598C44.6573 61.406 44.3843 61.229 43.9703 61.067C43.5563 60.905 42.9383 60.713 42.1163 60.491C41.2343 60.251 40.5443 60.011 40.0463 59.771C39.5483 59.531 39.1943 59.255 38.9843 58.943C38.7743 58.625 38.6693 58.238 38.6693 57.782C38.6693 57.23 38.8253 56.747 39.1373 56.333C39.4493 55.913 39.8813 55.589 40.4333 55.361C40.9853 55.127 41.6273 55.01 42.3593 55.01C43.0913 55.01 43.7453 55.13 44.3213 55.37C44.9033 55.604 45.3713 55.934 45.7253 56.36C46.0793 56.786 46.2893 57.281 46.3553 57.845L45.0053 58.088C44.9153 57.518 44.6303 57.068 44.1503 56.738C43.6763 56.402 43.0733 56.228 42.3413 56.216C41.6513 56.198 41.0903 56.33 40.6583 56.612C40.2263 56.888 40.0103 57.257 40.0103 57.719C40.0103 57.977 40.0883 58.199 40.2443 58.385C40.4003 58.565 40.6823 58.736 41.0903 58.898C41.5043 59.06 42.0923 59.237 42.8543 59.429C43.7483 59.657 44.4503 59.897 44.9603 60.149C45.4703 60.401 45.8333 60.698 46.0493 61.04C46.2653 61.382 46.3733 61.805 46.3733 62.309C46.3733 63.227 46.0313 63.95 45.3473 64.478C44.6693 65 43.7333 65.261 42.5393 65.261Z" fill="#16161D"/>
<rect x="128" y="44" width="600" height="28" rx="8" fill="#F1F1F4"/>
<rect x="128" y="44" width="140" height="28" rx="8" fill="#B30A3A"/>
<path d="M6.453 109.27C5.541 109.27 4.719 109.111 3.987 108.793C3.255 108.475 2.631 108.022 2.115 107.434C1.605 106.846 1.215 106.138 0.945 105.31C0.675 104.476 0.54 103.546 0.54 102.52C0.54 101.164 0.774 99.982 1.242 98.974C1.716 97.96 2.394 97.174 3.276 96.616C4.158 96.058 5.217 95.779 6.453 95.779C7.833 95.779 8.955 96.103 9.819 96.751C10.689 97.393 11.295 98.257 11.637 99.343L10.305 99.667C10.023 98.875 9.558 98.242 8.91 97.768C8.268 97.294 7.467 97.057 6.507 97.057C5.493 97.051 4.65 97.279 3.978 97.741C3.306 98.197 2.799 98.839 2.457 99.667C2.121 100.489 1.95 101.44 1.944 102.52C1.938 103.6 2.103 104.551 2.439 105.373C2.781 106.189 3.291 106.831 3.969 107.299C4.647 107.761 5.493 107.995 6.507 108.001C7.437 108.001 8.205 107.821 8.811 107.461C9.417 107.101 9.876 106.585 10.188 105.913C10.506 105.241 10.686 104.446 10.728 103.528H7.74V102.394H12.114C12.132 102.532 12.141 102.679 12.141 102.835C12.147 102.985 12.15 103.093 12.15 103.159C12.15 104.329 11.94 105.376 11.52 106.3C11.1 107.218 10.467 107.944 9.621 108.478C8.781 109.006 7.725 109.27 6.453 109.27ZM13.9514 109V99.28H15.1394V101.62L14.9054 101.314C15.0134 101.026 15.1544 100.762 15.3284 100.522C15.5024 100.276 15.6914 100.075 15.8954 99.919C16.1474 99.697 16.4414 99.529 16.7774 99.415C17.1134 99.295 17.4524 99.226 17.7944 99.208C18.1364 99.184 18.4484 99.208 18.7304 99.28V100.522C18.3764 100.432 17.9894 100.411 17.5694 100.459C17.1494 100.507 16.7624 100.675 16.4084 100.963C16.0844 101.215 15.8414 101.518 15.6794 101.872C15.5174 102.22 15.4094 102.592 15.3554 102.988C15.3014 103.378 15.2744 103.765 15.2744 104.149V109H13.9514ZM22.8496 109.27C22.1176 109.27 21.5026 109.138 21.0046 108.874C20.5126 108.61 20.1436 108.259 19.8976 107.821C19.6516 107.383 19.5286 106.906 19.5286 106.39C19.5286 105.862 19.6336 105.412 19.8436 105.04C20.0596 104.662 20.3506 104.353 20.7166 104.113C21.0886 103.873 21.5176 103.69 22.0036 103.564C22.4956 103.444 23.0386 103.339 23.6326 103.249C24.2326 103.153 24.8176 103.072 25.3876 103.006C25.9636 102.934 26.4676 102.865 26.8996 102.799L26.4316 103.087C26.4496 102.127 26.2636 101.416 25.8736 100.954C25.4836 100.492 24.8056 100.261 23.8396 100.261C23.1736 100.261 22.6096 100.411 22.1476 100.711C21.6916 101.011 21.3706 101.485 21.1846 102.133L19.8976 101.755C20.1196 100.885 20.5666 100.21 21.2386 99.73C21.9106 99.25 22.7836 99.01 23.8576 99.01C24.7456 99.01 25.4986 99.178 26.1166 99.514C26.7406 99.844 27.1816 100.324 27.4396 100.954C27.5596 101.236 27.6376 101.551 27.6736 101.899C27.7096 102.247 27.7276 102.601 27.7276 102.961V109H26.5486V106.561L26.8906 106.705C26.5606 107.539 26.0476 108.175 25.3516 108.613C24.6556 109.051 23.8216 109.27 22.8496 109.27ZM23.0026 108.127C23.6206 108.127 24.1606 108.016 24.6226 107.794C25.0846 107.572 25.4566 107.269 25.7386 106.885C26.0206 106.495 26.2036 106.057 26.2876 105.571C26.3596 105.259 26.3986 104.917 26.4046 104.545C26.4106 104.167 26.4136 103.885 26.4136 103.699L26.9176 103.96C26.4676 104.02 25.9786 104.08 25.4506 104.14C24.9286 104.2 24.4126 104.269 23.9026 104.347C23.3986 104.425 22.9426 104.518 22.5346 104.626C22.2586 104.704 21.9916 104.815 21.7336 104.959C21.4756 105.097 21.2626 105.283 21.0946 105.517C20.9326 105.751 20.8516 106.042 20.8516 106.39C20.8516 106.672 20.9206 106.945 21.0586 107.209C21.2026 107.473 21.4306 107.692 21.7426 107.866C22.0606 108.04 22.4806 108.127 23.0026 108.127ZM30.2505 97.435V95.95H31.5735V97.435H30.2505ZM30.2505 109V99.28H31.5735V109H30.2505ZM41.2917 109V104.041C41.2917 103.501 41.2407 103.006 41.1387 102.556C41.0367 102.1 40.8717 101.704 40.6437 101.368C40.4217 101.026 40.1307 100.762 39.7707 100.576C39.4167 100.39 38.9847 100.297 38.4747 100.297C38.0067 100.297 37.5927 100.378 37.2327 100.54C36.8787 100.702 36.5787 100.936 36.3327 101.242C36.0927 101.542 35.9097 101.908 35.7837 102.34C35.6577 102.772 35.5947 103.264 35.5947 103.816L34.6587 103.609C34.6587 102.613 34.8327 101.776 35.1807 101.098C35.5287 100.42 36.0087 99.907 36.6207 99.559C37.2327 99.211 37.9347 99.037 38.7267 99.037C39.3087 99.037 39.8157 99.127 40.2477 99.307C40.6857 99.487 41.0547 99.73 41.3547 100.036C41.6607 100.342 41.9067 100.693 42.0927 101.089C42.2787 101.479 42.4137 101.896 42.4977 102.34C42.5817 102.778 42.6237 103.216 42.6237 103.654V109H41.2917ZM34.2627 109V99.28H35.4597V101.674H35.5947V109H34.2627ZM48.5862 109.261C47.4462 109.261 46.5072 109.015 45.7692 108.523C45.0372 108.031 44.5872 107.347 44.4192 106.471L45.7692 106.246C45.9132 106.798 46.2402 107.239 46.7502 107.569C47.2662 107.893 47.9022 108.055 48.6582 108.055C49.3962 108.055 49.9782 107.902 50.4042 107.596C50.8302 107.284 51.0432 106.861 51.0432 106.327C51.0432 106.027 50.9742 105.784 50.8362 105.598C50.7042 105.406 50.4312 105.229 50.0172 105.067C49.6032 104.905 48.9852 104.713 48.1632 104.491C47.2812 104.251 46.5912 104.011 46.0932 103.771C45.5952 103.531 45.2412 103.255 45.0312 102.943C44.8212 102.625 44.7162 102.238 44.7162 101.782C44.7162 101.23 44.8722 100.747 45.1842 100.333C45.4962 99.913 45.9282 99.589 46.4802 99.361C47.0322 99.127 47.6742 99.01 48.4062 99.01C49.1382 99.01 49.7922 99.13 50.3682 99.37C50.9502 99.604 51.4182 99.934 51.7722 100.36C52.1262 100.786 52.3362 101.281 52.4022 101.845L51.0522 102.088C50.9622 101.518 50.6772 101.068 50.1972 100.738C49.7232 100.402 49.1202 100.228 48.3882 100.216C47.6982 100.198 47.1372 100.33 46.7052 100.612C46.2732 100.888 46.0572 101.257 46.0572 101.719C46.0572 101.977 46.1352 102.199 46.2912 102.385C46.4472 102.565 46.7292 102.736 47.1372 102.898C47.5512 103.06 48.1392 103.237 48.9012 103.429C49.7952 103.657 50.4972 103.897 51.0072 104.149C51.5172 104.401 51.8802 104.698 52.0962 105.04C52.3122 105.382 52.4202 105.805 52.4202 106.309C52.4202 107.227 52.0782 107.95 51.3942 108.478C50.7162 109 49.7802 109.261 48.5862 109.261Z" fill="#16161D"/>
<rect x="128" y="88" width="600" height="28" rx="8" fill="#F1F1F4"/>
<rect x="128" y="88" width="140" height="28" rx="8" fill="#A68363"/>
<path d="M1.26 153V140.04H6.264C6.39 140.04 6.531 140.046 6.687 140.058C6.849 140.064 7.011 140.082 7.173 140.112C7.851 140.214 8.424 140.451 8.892 140.823C9.366 141.189 9.723 141.651 9.963 142.209C10.209 142.767 10.332 143.385 10.332 144.063C10.332 144.735 10.209 145.35 9.963 145.908C9.717 146.466 9.357 146.931 8.883 147.303C8.415 147.669 7.845 147.903 7.173 148.005C7.011 148.029 6.849 148.047 6.687 148.059C6.531 148.071 6.39 148.077 6.264 148.077H2.583V153H1.26ZM2.583 146.817H6.228C6.336 146.817 6.462 146.811 6.606 146.799C6.75 146.787 6.891 146.766 7.029 146.736C7.473 146.64 7.836 146.457 8.118 146.187C8.406 145.917 8.619 145.596 8.757 145.224C8.901 144.852 8.973 144.465 8.973 144.063C8.973 143.661 8.901 143.274 8.757 142.902C8.619 142.524 8.406 142.2 8.118 141.93C7.836 141.66 7.473 141.477 7.029 141.381C6.891 141.351 6.75 141.333 6.606 141.327C6.462 141.315 6.336 141.309 6.228 141.309H2.583V146.817ZM12.1233 153V143.28H13.3113V145.62L13.0773 145.314C13.1853 145.026 13.3263 144.762 13.5003 144.522C13.6743 144.276 13.8633 144.075 14.0673 143.919C14.3193 143.697 14.6133 143.529 14.9493 143.415C15.2853 143.295 15.6243 143.226 15.9663 143.208C16.3083 143.184 16.6203 143.208 16.9023 143.28V144.522C16.5483 144.432 16.1613 144.411 15.7413 144.459C15.3213 144.507 14.9343 144.675 14.5803 144.963C14.2563 145.215 14.0133 145.518 13.8513 145.872C13.6893 146.22 13.5813 146.592 13.5273 146.988C13.4733 147.378 13.4463 147.765 13.4463 148.149V153H12.1233ZM22.4928 153.27C21.5268 153.27 20.7018 153.051 20.0178 152.613C19.3338 152.175 18.8088 151.569 18.4428 150.795C18.0768 150.021 17.8938 149.133 17.8938 148.131C17.8938 147.111 18.0798 146.217 18.4518 145.449C18.8238 144.681 19.3518 144.084 20.0358 143.658C20.7258 143.226 21.5448 143.01 22.4928 143.01C23.4648 143.01 24.2928 143.229 24.9768 143.667C25.6668 144.099 26.1918 144.702 26.5518 145.476C26.9178 146.244 27.1008 147.129 27.1008 148.131C27.1008 149.151 26.9178 150.048 26.5518 150.822C26.1858 151.59 25.6578 152.19 24.9678 152.622C24.2778 153.054 23.4528 153.27 22.4928 153.27ZM22.4928 152.001C23.5728 152.001 24.3768 151.644 24.9048 150.93C25.4328 150.21 25.6968 149.277 25.6968 148.131C25.6968 146.955 25.4298 146.019 24.8958 145.323C24.3678 144.627 23.5668 144.279 22.4928 144.279C21.7668 144.279 21.1668 144.444 20.6928 144.774C20.2248 145.098 19.8738 145.551 19.6398 146.133C19.4118 146.709 19.2978 147.375 19.2978 148.131C19.2978 149.301 19.5678 150.24 20.1078 150.948C20.6478 151.65 21.4428 152.001 22.4928 152.001ZM34.3782 153C33.8322 153.114 33.2922 153.159 32.7582 153.135C32.2302 153.111 31.7562 152.997 31.3362 152.793C30.9222 152.589 30.6072 152.271 30.3912 151.839C30.2172 151.479 30.1212 151.116 30.1032 150.75C30.0912 150.378 30.0852 149.955 30.0852 149.481V140.58H31.3992V149.427C31.3992 149.835 31.4022 150.177 31.4082 150.453C31.4202 150.723 31.4832 150.963 31.5972 151.173C31.8132 151.575 32.1552 151.815 32.6232 151.893C33.0972 151.971 33.6822 151.953 34.3782 151.839V153ZM28.0062 144.414V143.28H34.3782V144.414H28.0062ZM40.0546 153.27C39.1066 153.27 38.2846 153.06 37.5886 152.64C36.8986 152.22 36.3616 151.629 35.9776 150.867C35.5936 150.105 35.4016 149.211 35.4016 148.185C35.4016 147.123 35.5906 146.205 35.9686 145.431C36.3466 144.657 36.8776 144.06 37.5616 143.64C38.2516 143.22 39.0646 143.01 40.0006 143.01C40.9606 143.01 41.7796 143.232 42.4576 143.676C43.1356 144.114 43.6486 144.744 43.9966 145.566C44.3446 146.388 44.5036 147.369 44.4736 148.509H43.1236V148.041C43.0996 146.781 42.8266 145.83 42.3046 145.188C41.7886 144.546 41.0326 144.225 40.0366 144.225C38.9926 144.225 38.1916 144.564 37.6336 145.242C37.0816 145.92 36.8056 146.886 36.8056 148.14C36.8056 149.364 37.0816 150.315 37.6336 150.993C38.1916 151.665 38.9806 152.001 40.0006 152.001C40.6966 152.001 41.3026 151.842 41.8186 151.524C42.3406 151.2 42.7516 150.735 43.0516 150.129L44.2846 150.606C43.9006 151.452 43.3336 152.109 42.5836 152.577C41.8396 153.039 40.9966 153.27 40.0546 153.27ZM36.3376 148.509V147.402H43.7626V148.509H36.3376ZM46.6509 141.435V139.95H47.9739V141.435H46.6509ZM46.6509 153V143.28H47.9739V153H46.6509ZM57.6921 153V148.041C57.6921 147.501 57.6411 147.006 57.5391 146.556C57.4371 146.1 57.2721 145.704 57.0441 145.368C56.8221 145.026 56.5311 144.762 56.1711 144.576C55.8171 144.39 55.3851 144.297 54.8751 144.297C54.4071 144.297 53.9931 144.378 53.6331 144.54C53.2791 144.702 52.9791 144.936 52.7331 145.242C52.4931 145.542 52.3101 145.908 52.1841 146.34C52.0581 146.772 51.9951 147.264 51.9951 147.816L51.0591 147.609C51.0591 146.613 51.2331 145.776 51.5811 145.098C51.9291 144.42 52.4091 143.907 53.0211 143.559C53.6331 143.211 54.3351 143.037 55.1271 143.037C55.7091 143.037 56.2161 143.127 56.6481 143.307C57.0861 143.487 57.4551 143.73 57.7551 144.036C58.0611 144.342 58.3071 144.693 58.4931 145.089C58.6791 145.479 58.8141 145.896 58.8981 146.34C58.9821 146.778 59.0241 147.216 59.0241 147.654V153H57.6921ZM50.6631 153V143.28H51.8601V145.674H51.9951V153H50.6631Z" fill="#16161D"/>
<rect x="128" y="132" width="600" height="28" rx="8" fill="#F1F1F4"/>
<rect x="128" y="132" width="140" height="28" rx="8" fill="#E87D1F"/>
</svg>
