<svg width="258" height="258" viewBox="0 0 258 258" fill="none" xmlns="http://www.w3.org/2000/svg">
<path d="M248.234 129C248.234 194.851 194.851 248.234 129 248.234C63.1489 248.234 9.76596 194.851 9.76596 129C9.76596 63.1489 63.1489 9.76596 129 9.76596C194.851 9.76596 248.234 63.1489 248.234 129Z" stroke="#D2E4F9" stroke-width="19.5319"/>
<path fill-rule="evenodd" clip-rule="evenodd" d="M129 9.76622C129 4.37263 124.612 -0.0381943 119.234 0.364411C52.5512 5.35586 0 61.0411 0 129C0 200.245 57.7553 258 129 258C196.959 258 252.644 205.449 257.636 138.767C258.038 133.388 253.628 129.001 248.234 129.001C242.84 129.001 238.514 133.388 238.039 138.76C233.101 194.646 186.168 238.468 129 238.468C68.5424 238.468 19.5319 189.458 19.5319 129C19.5319 71.8319 63.3547 24.8988 119.24 19.9613C124.613 19.4866 129 15.1598 129 9.76622Z" fill="#1C78E3"/>
<path d="M70.0643 89V76.24L67.3543 77.87V76.22L70.0643 74.6H71.5543V89H70.0643ZM75.0473 88.99L75.0573 87.65L81.5673 81.77C82.1273 81.2633 82.4973 80.7833 82.6773 80.33C82.8639 79.87 82.9573 79.39 82.9573 78.89C82.9573 78.2967 82.8173 77.76 82.5373 77.28C82.2573 76.8 81.8806 76.42 81.4073 76.14C80.9339 75.8533 80.4039 75.71 79.8173 75.71C79.2039 75.71 78.6573 75.8567 78.1773 76.15C77.6973 76.4433 77.3173 76.83 77.0373 77.31C76.7639 77.79 76.6306 78.3133 76.6373 78.88H75.1373C75.1373 78.0067 75.3439 77.2233 75.7573 76.53C76.1706 75.8367 76.7306 75.2933 77.4373 74.9C78.1439 74.5 78.9439 74.3 79.8373 74.3C80.7106 74.3 81.4939 74.5067 82.1873 74.92C82.8873 75.3267 83.4373 75.88 83.8373 76.58C84.2439 77.2733 84.4473 78.0467 84.4473 78.9C84.4473 79.5 84.3739 80.03 84.2273 80.49C84.0873 80.9433 83.8639 81.3667 83.5573 81.76C83.2573 82.1467 82.8739 82.5467 82.4073 82.96L76.6273 88.18L76.3973 87.58H84.4473V88.99H75.0473ZM91.6535 89.3C90.7668 89.3 89.9668 89.0933 89.2535 88.68C88.5468 88.2667 87.9868 87.7067 87.5735 87C87.1602 86.2867 86.9535 85.4867 86.9535 84.6V79C86.9535 78.1133 87.1602 77.3167 87.5735 76.61C87.9868 75.8967 88.5468 75.3333 89.2535 74.92C89.9668 74.5067 90.7668 74.3 91.6535 74.3C92.5402 74.3 93.3369 74.5067 94.0435 74.92C94.7569 75.3333 95.3202 75.8967 95.7335 76.61C96.1469 77.3167 96.3535 78.1133 96.3535 79V84.6C96.3535 85.4867 96.1469 86.2867 95.7335 87C95.3202 87.7067 94.7569 88.2667 94.0435 88.68C93.3369 89.0933 92.5402 89.3 91.6535 89.3ZM91.6535 87.88C92.2469 87.88 92.7869 87.7367 93.2735 87.45C93.7602 87.1567 94.1469 86.7667 94.4335 86.28C94.7202 85.7933 94.8635 85.2567 94.8635 84.67V78.93C94.8635 78.3367 94.7202 77.7967 94.4335 77.31C94.1469 76.8233 93.7602 76.4367 93.2735 76.15C92.7869 75.8567 92.2469 75.71 91.6535 75.71C91.0602 75.71 90.5202 75.8567 90.0335 76.15C89.5468 76.4367 89.1602 76.8233 88.8735 77.31C88.5868 77.7967 88.4435 78.3367 88.4435 78.93V84.67C88.4435 85.2567 88.5868 85.7933 88.8735 86.28C89.1602 86.7667 89.5468 87.1567 90.0335 87.45C90.5202 87.7367 91.0602 87.88 91.6535 87.88ZM103.961 89.3C103.074 89.3 102.274 89.0933 101.561 88.68C100.854 88.2667 100.294 87.7067 99.8805 87C99.4672 86.2867 99.2605 85.4867 99.2605 84.6V79C99.2605 78.1133 99.4672 77.3167 99.8805 76.61C100.294 75.8967 100.854 75.3333 101.561 74.92C102.274 74.5067 103.074 74.3 103.961 74.3C104.847 74.3 105.644 74.5067 106.351 74.92C107.064 75.3333 107.627 75.8967 108.041 76.61C108.454 77.3167 108.661 78.1133 108.661 79V84.6C108.661 85.4867 108.454 86.2867 108.041 87C107.627 87.7067 107.064 88.2667 106.351 88.68C105.644 89.0933 104.847 89.3 103.961 89.3ZM103.961 87.88C104.554 87.88 105.094 87.7367 105.581 87.45C106.067 87.1567 106.454 86.7667 106.741 86.28C107.027 85.7933 107.171 85.2567 107.171 84.67V78.93C107.171 78.3367 107.027 77.7967 106.741 77.31C106.454 76.8233 106.067 76.4367 105.581 76.15C105.094 75.8567 104.554 75.71 103.961 75.71C103.367 75.71 102.827 75.8567 102.341 76.15C101.854 76.4367 101.467 76.8233 101.181 77.31C100.894 77.7967 100.751 78.3367 100.751 78.93V84.67C100.751 85.2567 100.894 85.7933 101.181 86.28C101.467 86.7667 101.854 87.1567 102.341 87.45C102.827 87.7367 103.367 87.88 103.961 87.88Z" fill="#6E6E91"/>
<path d="M115.208 74.6H116.718L112.878 89H111.368L115.208 74.6Z" fill="#424257"/>
<path d="M119.021 88.99L119.031 87.65L125.541 81.77C126.101 81.2633 126.471 80.7833 126.651 80.33C126.838 79.87 126.931 79.39 126.931 78.89C126.931 78.2967 126.791 77.76 126.511 77.28C126.231 76.8 125.855 76.42 125.381 76.14C124.908 75.8533 124.378 75.71 123.791 75.71C123.178 75.71 122.631 75.8567 122.151 76.15C121.671 76.4433 121.291 76.83 121.011 77.31C120.738 77.79 120.605 78.3133 120.611 78.88H119.111C119.111 78.0067 119.318 77.2233 119.731 76.53C120.145 75.8367 120.705 75.2933 121.411 74.9C122.118 74.5 122.918 74.3 123.811 74.3C124.685 74.3 125.468 74.5067 126.161 74.92C126.861 75.3267 127.411 75.88 127.811 76.58C128.218 77.2733 128.421 78.0467 128.421 78.9C128.421 79.5 128.348 80.03 128.201 80.49C128.061 80.9433 127.838 81.3667 127.531 81.76C127.231 82.1467 126.848 82.5467 126.381 82.96L120.601 88.18L120.371 87.58H128.421V88.99H119.021ZM135.628 89.3C134.741 89.3 133.941 89.0933 133.228 88.68C132.521 88.2667 131.961 87.7067 131.548 87C131.134 86.2867 130.928 85.4867 130.928 84.6V79C130.928 78.1133 131.134 77.3167 131.548 76.61C131.961 75.8967 132.521 75.3333 133.228 74.92C133.941 74.5067 134.741 74.3 135.628 74.3C136.514 74.3 137.311 74.5067 138.018 74.92C138.731 75.3333 139.294 75.8967 139.708 76.61C140.121 77.3167 140.328 78.1133 140.328 79V84.6C140.328 85.4867 140.121 86.2867 139.708 87C139.294 87.7067 138.731 88.2667 138.018 88.68C137.311 89.0933 136.514 89.3 135.628 89.3ZM135.628 87.88C136.221 87.88 136.761 87.7367 137.248 87.45C137.734 87.1567 138.121 86.7667 138.408 86.28C138.694 85.7933 138.838 85.2567 138.838 84.67V78.93C138.838 78.3367 138.694 77.7967 138.408 77.31C138.121 76.8233 137.734 76.4367 137.248 76.15C136.761 75.8567 136.221 75.71 135.628 75.71C135.034 75.71 134.494 75.8567 134.008 76.15C133.521 76.4367 133.134 76.8233 132.848 77.31C132.561 77.7967 132.418 78.3367 132.418 78.93V84.67C132.418 85.2567 132.561 85.7933 132.848 86.28C133.134 86.7667 133.521 87.1567 134.008 87.45C134.494 87.7367 135.034 87.88 135.628 87.88ZM147.935 89.3C147.048 89.3 146.248 89.0933 145.535 88.68C144.828 88.2667 144.268 87.7067 143.855 87C143.441 86.2867 143.235 85.4867 143.235 84.6V79C143.235 78.1133 143.441 77.3167 143.855 76.61C144.268 75.8967 144.828 75.3333 145.535 74.92C146.248 74.5067 147.048 74.3 147.935 74.3C148.821 74.3 149.618 74.5067 150.325 74.92C151.038 75.3333 151.601 75.8967 152.015 76.61C152.428 77.3167 152.635 78.1133 152.635 79V84.6C152.635 85.4867 152.428 86.2867 152.015 87C151.601 87.7067 151.038 88.2667 150.325 88.68C149.618 89.0933 148.821 89.3 147.935 89.3ZM147.935 87.88C148.528 87.88 149.068 87.7367 149.555 87.45C150.041 87.1567 150.428 86.7667 150.715 86.28C151.001 85.7933 151.145 85.2567 151.145 84.67V78.93C151.145 78.3367 151.001 77.7967 150.715 77.31C150.428 76.8233 150.041 76.4367 149.555 76.15C149.068 75.8567 148.528 75.71 147.935 75.71C147.341 75.71 146.801 75.8567 146.315 76.15C145.828 76.4367 145.441 76.8233 145.155 77.31C144.868 77.7967 144.725 78.3367 144.725 78.93V84.67C144.725 85.2567 144.868 85.7933 145.155 86.28C145.441 86.7667 145.828 87.1567 146.315 87.45C146.801 87.7367 147.341 87.88 147.935 87.88ZM160.242 89.3C159.355 89.3 158.555 89.0933 157.842 88.68C157.135 88.2667 156.575 87.7067 156.162 87C155.748 86.2867 155.542 85.4867 155.542 84.6V79C155.542 78.1133 155.748 77.3167 156.162 76.61C156.575 75.8967 157.135 75.3333 157.842 74.92C158.555 74.5067 159.355 74.3 160.242 74.3C161.128 74.3 161.925 74.5067 162.632 74.92C163.345 75.3333 163.908 75.8967 164.322 76.61C164.735 77.3167 164.942 78.1133 164.942 79V84.6C164.942 85.4867 164.735 86.2867 164.322 87C163.908 87.7067 163.345 88.2667 162.632 88.68C161.925 89.0933 161.128 89.3 160.242 89.3ZM160.242 87.88C160.835 87.88 161.375 87.7367 161.862 87.45C162.348 87.1567 162.735 86.7667 163.022 86.28C163.308 85.7933 163.452 85.2567 163.452 84.67V78.93C163.452 78.3367 163.308 77.7967 163.022 77.31C162.735 76.8233 162.348 76.4367 161.862 76.15C161.375 75.8567 160.835 75.71 160.242 75.71C159.648 75.71 159.108 75.8567 158.622 76.15C158.135 76.4367 157.748 76.8233 157.462 77.31C157.175 77.7967 157.032 78.3367 157.032 78.93V84.67C157.032 85.2567 157.175 85.7933 157.462 86.28C157.748 86.7667 158.135 87.1567 158.622 87.45C159.108 87.7367 159.648 87.88 160.242 87.88ZM184.833 89L184.843 81.91C184.843 81.0767 184.609 80.4233 184.143 79.95C183.683 79.47 183.096 79.23 182.383 79.23C181.976 79.23 181.579 79.3233 181.193 79.51C180.806 79.6967 180.486 79.9967 180.233 80.41C179.986 80.8233 179.863 81.3633 179.863 82.03L178.993 81.78C178.973 81.0067 179.123 80.33 179.443 79.75C179.769 79.17 180.216 78.72 180.783 78.4C181.356 78.0733 182.003 77.91 182.723 77.91C183.809 77.91 184.679 78.2467 185.333 78.92C185.986 79.5867 186.313 80.49 186.313 81.63L186.303 89H184.833ZM171.943 89V78.2H173.263V80.86H173.423V89H171.943ZM178.403 89L178.413 82.01C178.413 81.15 178.183 80.4733 177.723 79.98C177.269 79.48 176.669 79.23 175.923 79.23C175.176 79.23 174.573 79.4867 174.113 80C173.653 80.5067 173.423 81.1833 173.423 82.03L172.543 81.55C172.543 80.8567 172.706 80.2367 173.033 79.69C173.359 79.1367 173.806 78.7033 174.373 78.39C174.939 78.07 175.583 77.91 176.303 77.91C176.989 77.91 177.599 78.0567 178.133 78.35C178.673 78.6433 179.096 79.07 179.403 79.63C179.709 80.19 179.863 80.87 179.863 81.67L179.853 89H178.403ZM189.206 89V74.3H190.676V89H189.206Z" fill="#16161D"/>
<path d="M92.4663 150.72C90.2103 150.72 88.1783 150.192 86.3703 149.136C84.5783 148.064 83.1543 146.584 82.0983 144.696C81.0423 142.808 80.5143 140.64 80.5143 138.192V127.68C80.5143 125.056 81.0343 122.776 82.0743 120.84C83.1303 118.904 84.6023 117.408 86.4903 116.352C88.3943 115.296 90.6023 114.768 93.1143 114.768C94.8583 114.768 96.5143 115.064 98.0823 115.656C99.6503 116.232 101.042 117.16 102.258 118.44L98.0823 122.496C97.4743 121.776 96.7303 121.208 95.8503 120.792C94.9863 120.376 94.0743 120.168 93.1143 120.168C91.7703 120.168 90.5943 120.488 89.5863 121.128C88.5783 121.752 87.7943 122.576 87.2343 123.6C86.6903 124.624 86.4183 125.72 86.4183 126.888V132.624L85.3623 131.472C86.3543 130.32 87.5463 129.424 88.9383 128.784C90.3303 128.128 91.7863 127.8 93.3063 127.8C95.4823 127.8 97.4023 128.296 99.0663 129.288C100.73 130.264 102.042 131.608 103.002 133.32C103.962 135.016 104.442 136.952 104.442 139.128C104.442 141.288 103.89 143.248 102.786 145.008C101.698 146.752 100.25 148.144 98.4423 149.184C96.6343 150.208 94.6423 150.72 92.4663 150.72ZM92.4663 145.176C93.5863 145.176 94.6103 144.912 95.5383 144.384C96.4663 143.84 97.2023 143.112 97.7463 142.2C98.3063 141.272 98.5863 140.248 98.5863 139.128C98.5863 138.008 98.3143 136.984 97.7703 136.056C97.2263 135.128 96.4903 134.392 95.5623 133.848C94.6503 133.288 93.6343 133.008 92.5143 133.008C91.3943 133.008 90.3703 133.288 89.4423 133.848C88.5143 134.392 87.7783 135.128 87.2343 136.056C86.6903 136.984 86.4183 138.008 86.4183 139.128C86.4183 140.216 86.6823 141.224 87.2103 142.152C87.7543 143.064 88.4823 143.8 89.3943 144.36C90.3223 144.904 91.3463 145.176 92.4663 145.176ZM122.759 150.72C120.311 150.72 118.151 150.2 116.279 149.16C114.407 148.104 112.943 146.64 111.887 144.768C110.847 142.896 110.327 140.736 110.327 138.288V127.152C110.327 124.704 110.847 122.544 111.887 120.672C112.943 118.8 114.407 117.344 116.279 116.304C118.151 115.248 120.311 114.72 122.759 114.72C125.207 114.72 127.359 115.248 129.215 116.304C131.087 117.344 132.551 118.8 133.607 120.672C134.663 122.544 135.191 124.704 135.191 127.152V138.288C135.191 140.736 134.663 142.896 133.607 144.768C132.551 146.64 131.087 148.104 129.215 149.16C127.359 150.2 125.207 150.72 122.759 150.72ZM122.759 145.224C123.975 145.224 125.079 144.936 126.071 144.36C127.063 143.768 127.847 142.984 128.423 142.008C128.999 141.016 129.287 139.912 129.287 138.696V126.72C129.287 125.488 128.999 124.384 128.423 123.408C127.847 122.416 127.063 121.632 126.071 121.056C125.079 120.464 123.975 120.168 122.759 120.168C121.543 120.168 120.439 120.464 119.447 121.056C118.455 121.632 117.671 122.416 117.095 123.408C116.519 124.384 116.231 125.488 116.231 126.72V138.696C116.231 139.912 116.519 141.016 117.095 142.008C117.671 142.984 118.455 143.768 119.447 144.36C120.439 144.936 121.543 145.224 122.759 145.224ZM146.721 150L142.881 146.16L173.625 115.44L177.465 119.304L146.721 150ZM170.265 150.72C168.681 150.72 167.233 150.336 165.921 149.568C164.625 148.784 163.585 147.744 162.801 146.448C162.017 145.136 161.625 143.68 161.625 142.08C161.625 140.512 162.025 139.072 162.825 137.76C163.625 136.448 164.681 135.4 165.993 134.616C167.305 133.832 168.729 133.44 170.265 133.44C171.849 133.44 173.297 133.832 174.609 134.616C175.921 135.384 176.961 136.424 177.729 137.736C178.513 139.032 178.905 140.48 178.905 142.08C178.905 143.68 178.513 145.136 177.729 146.448C176.961 147.744 175.921 148.784 174.609 149.568C173.297 150.336 171.849 150.72 170.265 150.72ZM170.265 145.776C170.921 145.776 171.529 145.608 172.089 145.272C172.665 144.936 173.121 144.488 173.457 143.928C173.793 143.368 173.961 142.752 173.961 142.08C173.961 141.408 173.793 140.792 173.457 140.232C173.121 139.672 172.665 139.224 172.089 138.888C171.529 138.552 170.921 138.384 170.265 138.384C169.593 138.384 168.977 138.552 168.417 138.888C167.857 139.224 167.401 139.672 167.049 140.232C166.713 140.792 166.545 141.408 166.545 142.08C166.545 142.752 166.713 143.368 167.049 143.928C167.401 144.488 167.857 144.936 168.417 145.272C168.977 145.608 169.593 145.776 170.265 145.776ZM150.081 132C148.497 132 147.049 131.616 145.737 130.848C144.425 130.064 143.377 129.024 142.593 127.728C141.825 126.416 141.441 124.96 141.441 123.36C141.441 121.792 141.841 120.352 142.641 119.04C143.441 117.728 144.497 116.68 145.809 115.896C147.121 115.112 148.545 114.72 150.081 114.72C151.665 114.72 153.105 115.112 154.401 115.896C155.713 116.664 156.761 117.704 157.545 119.016C158.329 120.312 158.721 121.76 158.721 123.36C158.721 124.96 158.329 126.416 157.545 127.728C156.761 129.024 155.713 130.064 154.401 130.848C153.105 131.616 151.665 132 150.081 132ZM150.081 127.056C150.753 127.056 151.369 126.888 151.929 126.552C152.489 126.216 152.937 125.768 153.273 125.208C153.609 124.648 153.777 124.032 153.777 123.36C153.777 122.688 153.609 122.072 153.273 121.512C152.937 120.952 152.489 120.504 151.929 120.168C151.369 119.832 150.753 119.664 150.081 119.664C149.409 119.664 148.793 119.832 148.233 120.168C147.673 120.504 147.225 120.952 146.889 121.512C146.553 122.072 146.385 122.688 146.385 123.36C146.385 124.032 146.553 124.648 146.889 125.208C147.225 125.768 147.673 126.216 148.233 126.552C148.793 126.888 149.409 127.056 150.081 127.056Z" fill="#16161D"/>
<path d="M93.7743 186V174.48H97.2703C97.393 174.48 97.601 174.483 97.8943 174.488C98.193 174.493 98.4783 174.515 98.7503 174.552C99.625 174.675 100.356 175 100.942 175.528C101.529 176.056 101.969 176.728 102.262 177.544C102.556 178.36 102.702 179.259 102.702 180.24C102.702 181.221 102.556 182.12 102.262 182.936C101.969 183.752 101.529 184.424 100.942 184.952C100.356 185.48 99.625 185.805 98.7503 185.928C98.4836 185.96 98.1983 185.981 97.8943 185.992C97.5903 185.997 97.3823 186 97.2703 186H93.7743ZM94.9903 184.872H97.2703C97.489 184.872 97.7236 184.867 97.9743 184.856C98.2303 184.84 98.449 184.813 98.6303 184.776C99.3023 184.659 99.8436 184.387 100.254 183.96C100.67 183.533 100.974 183 101.166 182.36C101.358 181.715 101.454 181.008 101.454 180.24C101.454 179.467 101.358 178.757 101.166 178.112C100.974 177.467 100.67 176.933 100.254 176.512C99.8383 176.091 99.297 175.821 98.6303 175.704C98.449 175.667 98.2276 175.643 97.9663 175.632C97.7103 175.616 97.4783 175.608 97.2703 175.608H94.9903V184.872ZM107.096 186.24C106.446 186.24 105.899 186.123 105.456 185.888C105.019 185.653 104.691 185.341 104.472 184.952C104.254 184.563 104.144 184.139 104.144 183.68C104.144 183.211 104.238 182.811 104.424 182.48C104.616 182.144 104.875 181.869 105.2 181.656C105.531 181.443 105.912 181.28 106.344 181.168C106.782 181.061 107.264 180.968 107.792 180.888C108.326 180.803 108.846 180.731 109.352 180.672C109.864 180.608 110.312 180.547 110.696 180.488L110.28 180.744C110.296 179.891 110.131 179.259 109.784 178.848C109.438 178.437 108.835 178.232 107.976 178.232C107.384 178.232 106.883 178.365 106.472 178.632C106.067 178.899 105.782 179.32 105.616 179.896L104.472 179.56C104.67 178.787 105.067 178.187 105.664 177.76C106.262 177.333 107.038 177.12 107.992 177.12C108.782 177.12 109.451 177.269 110 177.568C110.555 177.861 110.947 178.288 111.176 178.848C111.283 179.099 111.352 179.379 111.384 179.688C111.416 179.997 111.432 180.312 111.432 180.632V186H110.384V183.832L110.688 183.96C110.395 184.701 109.939 185.267 109.32 185.656C108.702 186.045 107.96 186.24 107.096 186.24ZM107.232 185.224C107.782 185.224 108.262 185.125 108.672 184.928C109.083 184.731 109.414 184.461 109.664 184.12C109.915 183.773 110.078 183.384 110.152 182.952C110.216 182.675 110.251 182.371 110.256 182.04C110.262 181.704 110.264 181.453 110.264 181.288L110.712 181.52C110.312 181.573 109.878 181.627 109.408 181.68C108.944 181.733 108.486 181.795 108.032 181.864C107.584 181.933 107.179 182.016 106.816 182.112C106.571 182.181 106.334 182.28 106.104 182.408C105.875 182.531 105.686 182.696 105.536 182.904C105.392 183.112 105.32 183.371 105.32 183.68C105.32 183.931 105.382 184.173 105.504 184.408C105.632 184.643 105.835 184.837 106.112 184.992C106.395 185.147 106.768 185.224 107.232 185.224ZM113.775 175.72V174.4H114.951V175.72H113.775ZM113.775 186V177.36H114.951V186H113.775ZM117.609 186V174.24H118.785V186H117.609ZM122.516 189.84L124.188 185.304L124.212 186.648L120.428 177.36H121.676L124.78 185.128H124.268L127.132 177.36H128.332L123.692 189.84H122.516ZM137.74 186.24C136.93 186.24 136.199 186.099 135.548 185.816C134.898 185.533 134.343 185.131 133.884 184.608C133.431 184.085 133.084 183.456 132.844 182.72C132.604 181.979 132.484 181.152 132.484 180.24C132.484 179.035 132.692 177.984 133.108 177.088C133.53 176.187 134.132 175.488 134.916 174.992C135.7 174.496 136.642 174.248 137.74 174.248C138.967 174.248 139.964 174.536 140.732 175.112C141.506 175.683 142.044 176.451 142.348 177.416L141.164 177.704C140.914 177 140.5 176.437 139.924 176.016C139.354 175.595 138.642 175.384 137.788 175.384C136.887 175.379 136.138 175.581 135.54 175.992C134.943 176.397 134.492 176.968 134.188 177.704C133.89 178.435 133.738 179.28 133.732 180.24C133.727 181.2 133.874 182.045 134.172 182.776C134.476 183.501 134.93 184.072 135.532 184.488C136.135 184.899 136.887 185.107 137.788 185.112C138.615 185.112 139.298 184.952 139.836 184.632C140.375 184.312 140.783 183.853 141.06 183.256C141.343 182.659 141.503 181.952 141.54 181.136H138.884V180.128H142.772C142.788 180.251 142.796 180.381 142.796 180.52C142.802 180.653 142.804 180.749 142.804 180.808C142.804 181.848 142.618 182.779 142.244 183.6C141.871 184.416 141.308 185.061 140.556 185.536C139.81 186.005 138.871 186.24 137.74 186.24ZM148.114 186.24C147.255 186.24 146.522 186.045 145.914 185.656C145.306 185.267 144.839 184.728 144.514 184.04C144.188 183.352 144.026 182.563 144.026 181.672C144.026 180.765 144.191 179.971 144.522 179.288C144.852 178.605 145.322 178.075 145.93 177.696C146.543 177.312 147.271 177.12 148.114 177.12C148.978 177.12 149.714 177.315 150.322 177.704C150.935 178.088 151.402 178.624 151.722 179.312C152.047 179.995 152.21 180.781 152.21 181.672C152.21 182.579 152.047 183.376 151.722 184.064C151.396 184.747 150.927 185.28 150.314 185.664C149.7 186.048 148.967 186.24 148.114 186.24ZM148.114 185.112C149.074 185.112 149.788 184.795 150.258 184.16C150.727 183.52 150.962 182.691 150.962 181.672C150.962 180.627 150.724 179.795 150.25 179.176C149.78 178.557 149.068 178.248 148.114 178.248C147.468 178.248 146.935 178.395 146.514 178.688C146.098 178.976 145.786 179.379 145.578 179.896C145.375 180.408 145.274 181 145.274 181.672C145.274 182.712 145.514 183.547 145.994 184.176C146.474 184.8 147.18 185.112 148.114 185.112ZM156.546 186.24C155.896 186.24 155.349 186.123 154.906 185.888C154.469 185.653 154.141 185.341 153.922 184.952C153.704 184.563 153.594 184.139 153.594 183.68C153.594 183.211 153.688 182.811 153.874 182.48C154.066 182.144 154.325 181.869 154.65 181.656C154.981 181.443 155.362 181.28 155.794 181.168C156.232 181.061 156.714 180.968 157.242 180.888C157.776 180.803 158.296 180.731 158.802 180.672C159.314 180.608 159.762 180.547 160.146 180.488L159.73 180.744C159.746 179.891 159.581 179.259 159.234 178.848C158.888 178.437 158.285 178.232 157.426 178.232C156.834 178.232 156.333 178.365 155.922 178.632C155.517 178.899 155.232 179.32 155.066 179.896L153.922 179.56C154.12 178.787 154.517 178.187 155.114 177.76C155.712 177.333 156.488 177.12 157.442 177.12C158.232 177.12 158.901 177.269 159.45 177.568C160.005 177.861 160.397 178.288 160.626 178.848C160.733 179.099 160.802 179.379 160.834 179.688C160.866 179.997 160.882 180.312 160.882 180.632V186H159.834V183.832L160.138 183.96C159.845 184.701 159.389 185.267 158.77 185.656C158.152 186.045 157.41 186.24 156.546 186.24ZM156.682 185.224C157.232 185.224 157.712 185.125 158.122 184.928C158.533 184.731 158.864 184.461 159.114 184.12C159.365 183.773 159.528 183.384 159.602 182.952C159.666 182.675 159.701 182.371 159.706 182.04C159.712 181.704 159.714 181.453 159.714 181.288L160.162 181.52C159.762 181.573 159.328 181.627 158.858 181.68C158.394 181.733 157.936 181.795 157.482 181.864C157.034 181.933 156.629 182.016 156.266 182.112C156.021 182.181 155.784 182.28 155.554 182.408C155.325 182.531 155.136 182.696 154.986 182.904C154.842 183.112 154.77 183.371 154.77 183.68C154.77 183.931 154.832 184.173 154.954 184.408C155.082 184.643 155.285 184.837 155.562 184.992C155.845 185.147 156.218 185.224 156.682 185.224ZM163.225 186V174.24H164.401V186H163.225Z" fill="#6E6E91"/>
</svg>
